<svg width="64" height="64" viewBox="0 0 64 64" fill="none" xmlns="http://www.w3.org/2000/svg">
<path fill-rule="evenodd" clip-rule="evenodd" d="M38.1124 32.11C34.2072 28.2047 33.2574 22.8228 35.9911 20.0892C38.7248 17.3555 44.1067 18.3052 48.0119 22.2105C52.6243 26.8228 52.8669 31.4976 50.1332 34.2313C47.3996 36.965 42.7248 36.7223 38.1124 32.11ZM44 26C44 27.1046 43.1046 28 42 28C40.8954 28 40 27.1046 40 26C40 24.8954 40.8954 24 42 24C43.1046 24 44 24.8954 44 26Z" fill="black"/>
<path fill-rule="evenodd" clip-rule="evenodd" d="M29.1333 20.0892C31.8669 22.8228 30.9172 28.2047 27.0119 32.11C22.3996 36.7223 17.7248 36.965 14.9911 34.2313C12.2574 31.4976 12.5001 26.8228 17.1124 22.2105C21.0177 18.3052 26.3996 17.3555 29.1333 20.0892ZM26 26C26 27.1046 25.1046 28 24 28C22.8954 28 22 27.1046 22 26C22 24.8954 22.8954 24 24 24C25.1046 24 26 24.8954 26 26Z" fill="black"/>
<path d="M30.2437 35C29.0045 35 28 36.0045 28 37.2437C28 37.8546 28.2491 38.4392 28.6899 38.8623L29.1419 39.2963C29.9676 40.0889 30.9764 40.5779 32.0282 40.7634C32.0098 40.8393 32 40.9185 32 41C32 42.1635 31.4709 43.0612 30.5865 43.5563C29.6812 44.0631 28.2467 44.23 26.3356 43.5492C25.8153 43.3638 25.2433 43.6353 25.058 44.1556C24.8727 44.6759 25.1442 45.2479 25.6644 45.4332C27.9533 46.2486 30.0188 46.1661 31.5635 45.3014C32.1392 44.9791 32.6209 44.5596 33 44.0669C33.3791 44.5596 33.8608 44.9791 34.4365 45.3014C35.9812 46.1661 38.0467 46.2486 40.3356 45.4332C40.8558 45.2479 41.1273 44.6759 40.942 44.1556C40.7567 43.6353 40.1847 43.3638 39.6644 43.5492C37.7533 44.23 36.3188 44.0631 35.4135 43.5563C34.5291 43.0612 34 42.1635 34 41C34 40.9185 33.9902 40.8393 33.9718 40.7634C35.0236 40.5779 36.0324 40.0889 36.8581 39.2963L37.3101 38.8623C37.7509 38.4392 38 37.8546 38 37.2437C38 36.0045 36.9955 35 35.7563 35H30.2437Z" fill="black"/>
<path fill-rule="evenodd" clip-rule="evenodd" d="M8.32147 22.2323C5.71232 20.4292 4 17.4151 4 14C4 8.47715 8.47715 4 14 4C18.2361 4 21.8548 6.63329 23.3127 10.3502C26.0416 9.4745 28.9642 9 32 9C35.0358 9 37.9584 9.4745 40.6872 10.3502C42.1451 6.63329 45.7639 4 50 4C55.5228 4 60 8.47715 60 14C60 17.4151 58.2877 20.4292 55.6785 22.2323C57.7945 25.8669 59 30.0456 59 34.5C59 48.6384 46.8549 60 32 60C17.1451 60 5 48.6384 5 34.5C5 30.0456 6.20551 25.8669 8.32147 22.2323ZM6 14C6 9.58172 9.58172 6 14 6C17.3675 6 20.2511 8.08129 21.4307 11.0296C20.6259 11.3534 19.8409 11.713 19.0781 12.1063C18.1719 10.8316 16.6831 10 15 10C12.2386 10 10 12.2386 10 15C10 16.2379 10.4499 17.3708 11.195 18.244C10.5518 18.977 9.95111 19.7447 9.39662 20.5438C7.34046 19.0946 6 16.7034 6 14ZM54.6034 20.5438C56.6595 19.0946 58 16.7034 58 14C58 9.58172 54.4183 6 50 6C46.6325 6 43.7489 8.08128 42.5693 11.0296C43.3741 11.3534 44.1591 11.713 44.9219 12.1063C45.8281 10.8316 47.3169 10 49 10C51.7614 10 54 12.2386 54 15C54 16.2379 53.5501 17.3708 52.805 18.244C53.4482 18.977 54.0489 19.7447 54.6034 20.5438ZM7 34.5C7 21.5765 18.1361 11 32 11C45.8639 11 57 21.5765 57 34.5C57 47.4235 45.8639 58 32 58C18.1361 58 7 47.4235 7 34.5Z" fill="black"/>
</svg>
